# xmcd
#
# Track frame offsets:
#	150
#	17837
#	31652
#	52136
#	72090
#	89396
#	103444
#	120781
#	140172
#	160714
#	184761
#	202974
#	227770
#	246385
#	268708
#	297175
#
# Disc length: 3974 seconds
#
# Revision: 1
# Processed by: cddbd v1.5.2PL0 Copyright (c) Steve Scherf et al.
# Submitted via: audiograbber 1.83.01
#
DISCID=e40f8410
DTITLE=Various Artist - SC8807
DYEAR=1900
DGENRE=Country
TTITLE0=Jessica Anddrews 1 There's more to me than you
TTITLE1=Tammy Cochran 2 Love won't let me
TTITLE2=Faith Hill 3 Stronger
TTITLE3=Montgomery Gentry 4 Speed
TTITLE4=Mary Chapin Carpenter, Sheryl Crow and emmyloe Harris 5 Flesh and blood
TTITLE5=Shania Twain 6 Up! [country version]
TTITLE6=Tracy Byrd 7 Lately (been dreamin' 'bout babies)
TTITLE7=Shania Twain 8 When you kiss me [country version]
TTITLE8=Tim McGraw 9 She's my kind of rain
TTITLE9=Tim McGraw 10 Tiny dancer
TTITLE10=Diamond Rio 11 I believe
TTITLE11=Cross Canadian ragweed 12 Seventeen
TTITLE12=Rebecca Lynn Howard 13 This love
TTITLE13=Keith Urban 14 Raining on Sunday
TTITLE14=James Taylor and Dixie chicks 15 Wide open spaces (live tv version)
TTITLE15=Data Track
EXTD=
EXTT0=
EXTT1=
EXTT2=
EXTT3=
EXTT4=
EXTT5=
EXTT6=
EXTT7=
EXTT8=
EXTT9=
EXTT10=
EXTT11=
EXTT12=
EXTT13=
EXTT14=
EXTT15=
PLAYORDER=
